<?xml version="1.0" encoding="UTF-8"?>
<svg id="Capa_2" data-name="Capa 2" xmlns="http://www.w3.org/2000/svg" viewBox="0 0 443.55 93.8">
  <defs>
    <style>
      .cls-1 {
        fill: #fff;
      }

      .cls-2 {
        fill: #262626;
      }
    </style>
  </defs>
  <g id="Capa_2-2" data-name="Capa 2">
    <g>
      <path class="cls-1" d="M92.6,47.4v44.6c0,1.4-.5,1.8-1.8,1.8h-58.5c-1.1,0-1.9-.3-2.7-1.1-9.6-9.6-19-19.2-28.6-28.8-.6-.6-1-1.3-1-2.2V2.2C0,.9.5.6,1.6.6h89.4c1.4,0,1.6.5,1.6,1.8v45Z"/>
      <path class="cls-1" d="M269.5,33.1V2.4c0-1.1.2-1.6,1.4-1.4,1.8.2,3.4.2,5.1,0,1.1,0,1.3.3,1.3,1.3v52.4c0,1.3-.3,1.6-1.6,1.6-1.9-.2-4,0-6.1,0-1,0-1.4-.2-1.6-1.3-3.2-12.1-6.6-24.3-9.8-36.3-.2-.5-.2-1-.6-1.4v37.4c0,1.3-.3,1.8-1.6,1.6-1.6-.2-3.2-.2-4.8,0-1.3.2-1.4-.3-1.4-1.4V2.7c0-1.1.2-1.4,1.4-1.4,2.7.2,5.4.2,8.2,0,1,0,1.4.3,1.6,1.3,2.6,9.9,5.3,19.7,7.8,29.6.3.1.3.6.7.9h0Z"/>
      <path class="cls-1" d="M121.5,26.9c4.8,2.1,6.1,6.1,6.2,10.6.2,3.2.3,6.6-.3,9.6-1.1,5.4-4.8,8.8-10.4,9-5,.2-9.9,0-14.9.2-1.1,0-1-.6-1-1.3V2.4c0-1.1.2-1.4,1.4-1.4,4.6.2,9.3-.3,13.9.2,6.9.8,9.6,3.5,10.4,10.4.3,2.7.3,5.3-.2,8-.6,3.1-2.1,5.7-5.1,7.3Z"/>
      <path class="cls-1" d="M230.4,28.8v15c0,2.2-.5,4.5-1.4,6.6-1.3,2.7-3.2,4.6-6.1,5.6-3.7,1.3-7.5,1.4-11.4,0-5.1-1.9-7.2-6.2-7.4-11.2-.2-10.7-.3-21.4,0-32.1.3-9.8,7.2-12.8,14.9-12,7,.8,10.9,5.3,11,12.8.5,5.1.4,10.2.4,15.3h0Z"/>
      <path class="cls-1" d="M174.6,26.6c.2-3.4-.3-9,.2-14.4.8-9.3,7.2-12.3,14.5-11.5,6.9.8,10.4,4.8,10.9,12.3.2,1.9,0,3.8,0,5.9,0,.8-.3,1-1,1h-6.2c-.8,0-1-.3-1-1v-6.1c-.2-3.2-2.2-5-5.6-4.3-1.6.3-2.7,1.4-3,3.2-.2.8-.2,1.8-.2,2.6v28.8c0,.6,0,1.3.2,1.9.3,2.7,1.9,4,4.6,3.8,2.6-.2,4-1.6,4.2-4.2.2-2.6.2-5.1,0-7.7,0-1,.2-1.4,1.3-1.3,1.9.2,4,0,6.1,0,.5,0,1,0,1,.8-.2,3.8.3,7.7-.5,11.4-1.3,5.4-5,8.6-10.6,9.1-1.6.2-3.4.2-5-.2-5.6-1.1-9-5-9.4-10.6,0-.8-.2-1.6-.2-2.2-.5-5.2-.3-10.1-.3-17.3Z"/>
      <path class="cls-1" d="M317.5,16c-1.3,0-2.9.5-3.8-.2-1-.6-.3-2.4-.5-3.7-.3-2.6-1.8-4-4.2-4-2.6,0-3.8,1.3-4.2,3.8-.5,3.2.5,6.1,2.6,8.6,1.4,1.8,3.2,3.4,4.8,5,2.2,2.1,4.3,4,6.1,6.6,3.5,5.1,4.2,10.9,2.4,16.8-1.3,4.2-4,6.6-8.2,7.4-2.7.6-5.3.5-8-.2-4.8-1.1-7.8-5-8.5-10.7-.2-1.8,0-3.5-.2-5.3,0-.8.3-1,1-1h6.2c.8,0,1,.3,1,1.1,0,1.8-.2,3.4.3,5.1.5,2.1,1.8,3.2,4.2,3.2,2.2,0,3.7-1,4.3-3,.8-2.9.2-5.8-1.4-8.3-1.4-2.2-3.4-4.2-5.4-5.9-2.1-1.9-4-3.7-5.8-5.9-4-5.1-5-10.9-3.4-16.9,1.1-4.8,4.3-7.5,9.3-8.3,2.2-.3,4.3-.3,6.4.2,4.8,1.1,8,4.6,8.6,9.8.2,1.4.3,2.9.3,4.5,0,.8-.2,1.1-1,1.1-.8.2-1.8.4-2.9.2q0,.13,0,0h0Z"/>
      <path class="cls-1" d="M333.6,32.8V11.1c0-1.4-.63-2.1-1.9-2.1h-5.9c-1,0-1.3-.2-1.3-1.1V2c0-.8.2-1,1-1h24.8c.8,0,1,.2,1,1v6.1c0,.8-.2,1.1-1,1.1h-6.6c-1.3,0-1.4.3-1.4,1.4v44.1c0,1.3-.3,1.8-1.6,1.8-1.9-.2-3.8-.2-5.8,0-1.1,0-1.3-.3-1.3-1.4v-22.3h0Z"/>
      <path class="cls-1" d="M154.3,32.7V10.3c0-1.1-.3-1.4-1.3-1.3-2.1.2-4.3,0-6.4,0-1.1,0-1.3-.3-1.3-1.3V2.1c0-.8.2-1.1,1.1-1.1h24.6c.6,0,1,.2,1,1v6.1c0,.8-.3,1-1,1h-6.6c-1.1,0-1.4.3-1.4,1.4v44.1c0,1.4-.5,1.8-1.8,1.8-1.8-.2-3.5-.2-5.4,0-1.1,0-1.6-.3-1.6-1.4.2-7.5.1-15,.1-22.3h0Z"/>
      <path class="cls-1" d="M366.4,8c-.3.6-.2,1.3-.2,1.8v44.9c0,.5.3,1.3-.3,1.4-.8.2-1.9.2-2.7,0-.3,0-.2-.8-.2-1.1V2.5c0-1.3.2-1.8,1.6-1.8,3,.2,3,0,4.2,2.9,4.8,13.7,9.8,27.7,14.5,41.4.2.5.3,1,.5,1.4.5-.6.3-1.3.3-1.8V2.2c0-.5-.3-1.3.3-1.4.8-.2,1.8-.2,2.7,0,.3,0,.2.6.2,1v52.6c0,1.1-.3,1.6-1.4,1.4-2.6-.2-2.6,0-3.4-2.4-5.1-14.9-10.4-29.7-15.5-44.6-.3.2-.4-.3-.6-.8Z"/>
      <path class="cls-1" d="M291.4,28.8v25.9c0,1.3-.2,1.8-1.6,1.6-1.9-.2-4,0-6.1,0-.8,0-1.1-.3-1.1-1.1V2.8c0-1.3.3-1.8,1.6-1.6,1.9.2,3.8.2,5.9,0,1,0,1.3.3,1.3,1.3v26.3h0Z"/>
      <path class="cls-1" d="M244.1,28.8v26.1c0,1.3-.3,1.6-1.6,1.4-1.8-.2-3.5-.2-5.3,0-1.4.2-1.9-.3-1.9-1.9V2.4c0-1.3.3-1.6,1.6-1.4,1.9.2,3.7.2,5.6,0,1.3,0,1.6.3,1.6,1.6v26.2h0Z"/>
      <path class="cls-1" d="M141.2,28.7v26.4c0,1.1-.2,1.4-1.3,1.4-1.9-.2-3.8-.2-5.9,0-1.1,0-1.6-.3-1.4-1.4V2.7c0-1,.2-1.3,1.3-1.3,1.9.2,3.8.2,5.9,0,1.3,0,1.6.3,1.6,1.6-.4,8.2-.2,17-.2,25.7h0Z"/>
      <path class="cls-1" d="M391.7,28.8V2.6c0-1.3.3-1.6,1.6-1.6,6.2,0,12.5.2,18.7,0,1.6,0,1.3.8,1.3,1.8,0,.8.3,1.8-1.3,1.8-5.1-.2-10.2,0-15.3,0-1.1,0-1.3.3-1.3,1.3v19.5c0,1.1.2,1.4,1.3,1.4h12.5c1.4,0,1.3.8,1.3,1.6s.5,1.9-1.3,1.8c-4.2-.2-8.3,0-12.5,0-1.1,0-1.3.3-1.3,1.4v20.1c0,1.1.2,1.6,1.4,1.6h14.9c1.4,0,1.6.5,1.6,1.8,0,1.1-.2,1.6-1.6,1.6-6.2-.2-12.5,0-18.7,0-1.1,0-1.4-.3-1.4-1.3.1-9.2.1-17.8.1-26.6h0Z"/>
      <path class="cls-1" d="M432.3,30.4v24.5c0,1.1-.2,1.8-1.4,1.4h-1.4c-.6,0-1-.2-.8-.8V6c0-1.3-.3-1.6-1.6-1.6-2.7.2-5.6,0-8.3,0-1,0-1.3-.2-1.3-1.3,0-1.4.7-2.1,2.1-2.1h22.5c1.8,0,1.3,1,1.4,1.9.2,1.1-.2,1.6-1.4,1.6-2.9-.2-5.6,0-8.5,0-1.1,0-1.3.3-1.3,1.3v24.6h0Z"/>
      <path class="cls-1" d="M352.2,53c0-.6.2-1.3,0-1.8-.3-1.4.5-1.6,1.8-1.8,1.6,0,2.1.3,1.9,1.9-.2,1.3,0,2.7,0,4,0,.8-.2,1.1-1,1.1-1.73.13-2.6-.67-2.6-2.4-.1-.4-.1-.7-.1-1h0Z"/>
      <path class="cls-1" d="M288.1,83.8c.6-4.5,1.4-9,2.1-13.6,0-.5,0-1.1.8-1,.8,0,.6.6.8,1.1.6,4.2,1.3,8.5,1.9,12.6,0,.3,0,.8.5,1.1.8-4.6,1.4-9.1,2.2-13.6v-.6c0-.5.2-.8.8-.8.5.2.3.5.3.8-.3,2.2-.6,4.5-1.1,6.7-.5,3-1,6.1-1.4,9.1-.2.5,0,1.1-.8,1.1-1,0-1-.6-1-1.3-.6-4.2-1.3-8.3-2.1-12.8-.6,1.8-.8,3.4-1.1,5-.5,2.6-.8,5.3-1.3,7.8-.2.5,0,1.3-1,1.3-1.1,0-1-.6-1.1-1.3-.8-5-1.6-10.1-2.4-15,0-.5-.2-.8-.2-1.3,0-.2.3-.3.5-.3.6,0,.6.6.6,1,.6,3.8,1.3,7.8,1.9,11.7.2.6.2,1.3.3,1.9.3.3.3.6.2,1,.3.2.3-.3.6-.6h0Z"/>
      <path class="cls-1" d="M391.7,83.5v-13.9c0-.3.2-.5.5-.5s.5.2.5.5v16c0,.5.5,1.1-.5,1.3s-1-.5-1.1-1.1c-1.6-4.6-3.2-9.1-5-13.7,0,.3-.2.6-.2,1.1v12.6c0,.5.3,1.1-.5,1.1s-.5-.8-.5-1.1v-15.3c0-.5-.3-1.1.6-1.3.8,0,1,.5,1.3,1.1,1.4,4.2,3,8.5,4.5,12.6.2.1.2.4.4.6-.2,0,0,0,0,0h0Z"/>
      <path class="cls-1" d="M324.7,72.1v14.6c0,.3-.3.5-.5.5-.3,0-.5-.2-.5-.5v-15.6c0-.6-.6-1.6.6-1.9,1.1-.2,1.1.8,1.4,1.4,1.4,4,2.9,8.2,4.3,12.1.2.2.2.5.5.6v-13.6c0-.3,0-.8.5-.8s.5.5.5.8v16.3c0,.3,0,.6-.5.8-.6,0-1-.3-1.1-.8-1.1-3.2-2.2-6.2-3.4-9.4-.5-1.6-1.1-3-1.6-4.6-.1.1-.2.1-.2.1h0Z"/>
      <path class="cls-1" d="M216.1,83.7v-13.9c0-.3.2-.5.5-.5.5,0,.5.2.5.5v15.6c0,.5.5,1.4-.5,1.6-1.1.3-1.1-.8-1.3-1.4-1.4-4.2-2.9-8.3-4.3-12.5-.2-.3-.3-.6-.6-.8v12.6c0,.6.6,2.1-.5,2.1s-.6-1.4-.6-2.1v-14.4c0-.5-.3-1.1.6-1.3.8-.2,1.1.3,1.3,1,1.4,4.2,2.9,8.3,4.5,12.5,0,.3,0,.6.4,1h0Z"/>
      <path class="cls-1" d="M333.3,78.1v-7.5c0-1.1.3-1.4,1.4-1.3h1.8c3.4,0,4.6,1,4.8,4.3.2,3.4.3,6.7-.2,9.9-.3,2.4-1.6,3.4-3.8,3.5-2.53.13-3.8-1.1-3.8-3.7-.2-1.7-.2-3.5-.2-5.2h0Z"/>
      <path class="cls-1" d="M382.6,78.2v7.7c0,.5.3,1.1-.6,1.1-1,0-.6-.6-.6-1.1v-6.1c0-1-.3-1.1-1.1-1.1-1.4.2-3.2-.6-4.2.3-.8.8-.2,2.6-.3,4v3.2c0,.3.2.8-.5,1-.6,0-.6-.3-.6-.8v-16.1c0-.5,0-.8.6-.8.8,0,.6.6.6,1v6.1c0,1,.3,1.3,1.3,1.1,1.4-.2,3.2.5,4-.3,1-.8.2-2.6.3-4v-3.2c0-.3-.2-.8.5-1,.8,0,.6.5.6,1v8h0Z"/>
      <path class="cls-1" d="M247.8,78.5c1.8.6,2.2,1.9,2.2,3.4s-.2,2.9.2,4.3c0,.3.5.6-.2.8-.5.2-1-.2-1-.6-.2-.6-.2-1.3-.2-1.9v-1.6c0-3-1.3-4.2-4.5-3.8-.8.2-.6.6-.6,1.1v5.9c0,.3.2.8-.5,1-.6,0-.6-.5-.6-1v-16c0-.8.3-1,1-1h1c5.8-.5,5.8,2.2,5.4,6.9-.3,1.3-1.1,1.9-2.2,2.5h0Z"/>
      <path class="cls-1" d="M118.8,78.5c1.6.6,2.1,1.8,2.1,3.4,0,1.4-.2,2.9.2,4.3,0,.3.5.6-.2.8-.5.2-.8,0-1-.5s-.2-1-.2-1.4v-2.2c0-3-1.4-4.2-4.5-3.8-.8.2-.6.6-.6,1.1v5.9c0,.3.2.8-.5,1-.6,0-.6-.5-.6-1v-16c0-.6.2-1,.8-1h3.4c1.9.2,3,1.3,3.2,3,.2,1,0,2.1,0,3,0,1.7-.4,2.3-2.1,3.4Z"/>
      <path class="cls-1" d="M195.7,78.5c1.8.6,2.2,1.9,2.2,3.5,0,1.4-.2,2.7.2,4.2,0,.3.5.6-.2.8-.5.2-1,0-1-.6-.2-1.1-.2-2.2-.2-3.4,0-3.2-.8-4-4.2-4-.8,0-1.1.3-1.1,1.1v5.9c0,.3.2.8-.5,1-.6,0-.6-.3-.6-1v-16c0-.8.3-1,1-1h1.1c5.8-.5,5.8,2.4,5.3,7-.1,1.3-.9,1.9-2,2.5Z"/>
      <path class="cls-1" d="M186.2,78.5c1.6.6,2.1,1.9,2.1,3.5,0,1.3-.2,2.7.2,4,0,.3.6.8-.2,1-.6.2-1-.2-1-.8,0-.8-.2-1.6-.2-2.4v-2.1c-.2-2.1-3-3.5-4.8-2.6-.5.3-.3.6-.3,1.1v5.9c0,.5.2,1-.6,1s-.6-.6-.6-1v-15.8c0-.6.2-1.1,1-1h1.4c1.9,0,4-.2,5,2.1.9,2.5.1,5.5-2,7.1h0Z"/>
      <path class="cls-1" d="M423.6,78.4v5.1c.2,1.8,1.1,2.7,2.6,2.7,1.4,0,2.4-1,2.6-2.6v-2.2c0-1.1.3-2.7-1.8-2.2-.3,0-.6-.2-.6-.5s.2-.5.6-.5h2.1c.5,0,.6.3.6.8,0,1.9.2,3.8-.2,5.6-.5,1.9-1.6,2.9-3.7,2.9-1.9,0-3-1-3.5-2.7-.5-1.4-.2-2.9-.2-4.5v-6.7c0-2.4,1.3-3.8,3.2-4.2,3-.3,5.1,2.1,4.5,5.1,0,.3-.2.6-.5.6-.5,0-.6-.3-.6-.6v-1.3c-.2-1.8-1.1-2.7-2.7-2.7-1.4,0-2.4,1-2.6,2.7.1,1.5.2,3.3.2,5.2Z"/>
      <path class="cls-1" d="M171.4,76.9v-6.4c0-.5-.5-1.4.5-1.4,1.1,0,.6,1,.6,1.4v12c0,1,.2,1.9.8,2.6.8.8,1.8,1,2.7.6,1.1-.3,1.6-1.3,1.8-2.4.2-1.6.2-3,.2-4.6v-8.6c0-.5-.3-1.1.6-1.1.8,0,.5.8.5,1.1v11.8c0,.6-.2,1.4-.3,2.1-.5,1.8-1.6,2.7-3.4,2.7-1.9,0-3.2-.8-3.7-2.6-.8-2.2-.2-4.9-.3-7.2h0Z"/>
      <path class="cls-1" d="M420.3,78.2v5.1c0,2.4-1.4,3.8-3.5,3.8-2.4.2-4-1-4.2-3.4-.3-3.8-.3-7.5,0-11.4.2-2.4,1.8-3.4,4.2-3.2,1.9.2,3.4,1.4,3.4,3.7.1,1.7.1,3.5.1,5.4h0Z"/>
      <path class="cls-1" d="M402.4,78.1v5.1c0,2.4-1.4,3.8-3.5,4-2.4.2-4-1-4.2-3.5-.2-3.7-.2-7.4,0-11,.2-2.4,1.8-3.7,4.2-3.5,2.1.2,3.4,1.6,3.5,4v4.9Z"/>
      <path class="cls-1" d="M160,78.2v5.1c0,2.4-1.4,3.8-3.5,3.8-2.4.2-4-1-4.2-3.4-.3-3.8-.3-7.5,0-11.4.2-2.4,1.8-3.4,4.2-3.2,1.9.2,3.4,1.4,3.4,3.7.1,1.7.1,3.5.1,5.4h0Z"/>
      <path class="cls-1" d="M321.5,86.2c.2.6,0,.8-.3.8-.5,0-.6,0-.8-.5-.2-.8-.3-1.4-.5-2.2-.2-1-.6-1.3-1.6-1.1h-1c-2.13,0-3.47,1-4,3-.2.5-.2,1.1-.8.8-.8-.2-.3-.8-.2-1.1,1.1-5.1,2.2-10.2,3.4-15.5.2-.6.2-1.3,1.1-1.3,1.1,0,1,.8,1.1,1.3,1.1,5.1,2.2,10.2,3.4,15.5.2.1.3.3.2.3h0Z"/>
      <path class="cls-1" d="M103.9,78.7v-5.6c.2-2.4,1.3-3.8,3.2-4,3-.2,5.1,2.4,4.3,5.4-.2.3-.2.5-.6.5-.3,0-.5-.2-.5-.6,0-.6,0-1.3-.2-1.9-.2-1.4-1-2.2-2.4-2.2s-2.6.8-2.7,2.2c-.3,3.8-.3,7.7,0,11.5.2,1.4,1.1,2.2,2.6,2.2,1.4,0,2.4-.8,2.6-2.2.2-.8,0-1.6.2-2.4,0-.3.2-.8.6-.6.5,0,.5.3.5.8,0,1.1,0,2.1-.3,3.2-.5,1.8-1.8,2.6-3.5,2.6-1.9,0-3-.8-3.5-2.6-.6-2.5-.1-4.7-.3-6.3Z"/>
      <path class="cls-1" d="M161.8,78.7c0-2.2-.2-4,0-5.6.2-2.9,1.8-4.3,4.5-3.8,2.1.3,4,3.7,3,5.6-.2.3-.3.3-.6.3s-.5-.2-.5-.5v-1.9c-.2-1.6-1.1-2.6-2.6-2.6-1.4,0-2.6.8-2.7,2.4-.2,3.7-.2,7.5,0,11.2.2,1.4,1.1,2.4,2.6,2.4s2.4-.8,2.6-2.4c.2-.8,0-1.6.2-2.4,0-.3,0-.6.5-.6s.6.2.6.6c0,1.3,0,2.4-.3,3.7-.6,1.6-1.8,2.2-3.7,2.2-1.8,0-2.9-1-3.4-2.6-.5-2.3-.1-4.4-.2-6h0Z"/>
      <path class="cls-1" d="M220.3,78.1v5.3c.2,1.8,1.1,2.7,2.7,2.7,1.4,0,2.4-1,2.6-2.7v-1.9c0-.3,0-.8.5-.8s.6.3.6.6c0,1.1,0,2.2-.3,3.4-.5,1.6-1.8,2.6-3.7,2.4-1.8,0-2.9-.8-3.5-2.6-.3-1.1-.3-2.1-.3-3.2v-8.2c0-2.7,1.4-4.2,3.7-4.2,2.7,0,4.8,2.9,4,5.4-.2.3-.3.5-.5.5-.3,0-.6-.2-.6-.5v-1.9c-.2-1.6-1.1-2.6-2.6-2.6s-2.6.8-2.6,2.4c-.2,2.2,0,4.1,0,5.9h0Z"/>
      <path class="cls-1" d="M365.4,78.7v-5.6c.2-2.7,1.6-4.2,4.2-4,2.4.2,4.3,3.4,3.4,5.6-.2.3-.3.3-.6.3s-.5-.3-.5-.6c0-.6,0-1.3-.2-1.9-.2-1.4-1-2.2-2.4-2.2s-2.6.8-2.7,2.2c-.3,3.8-.3,7.7,0,11.5.2,1.4,1.1,2.2,2.6,2.2s2.2-.8,2.6-2.2c.2-.8.2-1.6.2-2.4,0-.5,0-.8.6-.8.5,0,.5.3.5.8,0,1.1,0,2.1-.3,3.2-.5,1.8-1.8,2.6-3.5,2.6-1.9,0-3-.8-3.5-2.6-.7-2.4-.4-4.5-.4-6.1h0Z"/>
      <path class="cls-1" d="M133.5,78.2v-7.8c0-1,.3-1.1,1.3-1.3,5.4-.2,6.2.6,6.2,6.1,0,3.4-1.1,4.5-4.5,4.3-1.4,0-1.9.3-1.8,1.9.2,1.6,0,3,0,4.6,0,.3.2.8-.5,1-.6,0-.6-.5-.6-1-.1-2.5-.1-5.1-.1-7.8h0Z"/>
      <path class="cls-1" d="M265.7,84.9c1.1-4.8,2.1-9.6,3.2-14.4,0-.2,0-.5.2-.6,0-.5.3-.8.8-.6.6.2.3.6.3,1-1,4.3-1.8,8.5-2.7,12.8-.2,1-.5,1.9-.6,3-.2.6-.3,1.1-1.1,1.1s-1-.5-1.1-1c-1.1-5.3-2.2-10.6-3.4-15.7-.2-.3-.5-1,.3-1.1.6,0,.6.5.8,1,1.1,5,2.1,9.9,3.2,14.9-.07-.27-.03-.4.1-.4h0Z"/>
      <path class="cls-1" d="M302.9,87.2c-2.6,0-4.5-2.4-3.8-4.8.2-.3.2-.5.6-.5s.5.3.5.6c0,.6,0,1.3.2,1.8.3,1.1,1.1,1.8,2.4,1.9,1.3,0,2.2-.5,2.6-1.8.6-1.9.2-3.5-1.4-4.6-1-.8-2.1-1.6-3-2.6-1.4-1.3-1.9-3-1.6-5,.5-2.2,1.8-3.2,4.2-3,1.9.2,3,1.4,3.2,3.5,0,.5.3,1.1-.5,1.1s-.5-.6-.6-1c-.3-1.9-1.3-2.9-2.9-2.7-1.9.2-2.9,2.6-2.1,4.6.3,1,1.1,1.6,1.8,2.2,1,.8,1.9,1.4,2.7,2.2,1.6,1.4,1.9,3.8,1.1,5.8-.6,1.5-1.8,2.3-3.4,2.3h0Z"/>
      <path class="cls-1" d="M356.5,78.1v-7.5c0-1,.3-1.3,1.3-1.3h4.8c.3,0,1-.2,1,.5s-.5.5-1,.5h-3.7c-1,0-1.3.2-1.3,1.1.2,1.8,0,3.5,0,5.3,0,.6.2,1,.8,1h3.2c.3,0,.8,0,.8.5s-.3.5-.8.5h-2.9c-.8,0-1.3.2-1.1,1.1v5.4c0,.8.3,1.1,1.1,1h3.8c.3,0,1-.2,1,.5,0,.6-.5.5-.8.5h-5.1c-1,0-1.1-.3-1.1-1.1v-8h0Z"/>
      <path class="cls-1" d="M200.3,78.1v-7.5c0-1,.2-1.4,1.3-1.3,1.6.2,3.4,0,5,0,.3,0,1,0,.8.6,0,.5-.5.5-.8.5h-4c-.6,0-1,.2-1,1v5.4c0,.8.3,1,1,1h2.9c.3,0,1-.2,1,.5,0,.8-.6.6-1,.6h-2.7c-.8,0-1.1.2-1.1,1v5.4c0,1,.3,1.1,1.1,1.1h3.8c.5,0,.8,0,.8.6,0,.5-.5.5-.8.5h-5.1c-.8,0-1.1-.2-1.1-1.1-.1-3.1-.1-5.8-.1-8.3h0Z"/>
      <path class="cls-1" d="M275.1,78.1v-7.7c0-1,.3-1.3,1.3-1.3h5c.3,0,1-.2.8.5,0,.5-.5.5-.8.5h-3.8c-.8,0-1.3.2-1.1,1.1v5.3c0,.8.2,1,1,1h3.2c.3,0,.6,0,.6.5s-.3.6-.6.6h-3c-.8,0-1.1.2-1.1,1v5.6c0,.8.3,1,1,1h4c.5,0,.8,0,.8.6,0,.5-.5.5-.8.5h-5.3c-.8,0-1-.3-1-1.1-.2-2.9-.2-5.4-.2-8.1Z"/>
      <path class="cls-1" d="M255.8,69.3h2.4c.3,0,1-.2,1,.5s-.6.5-1,.5h-3.8c-.8,0-1.1.3-1,1.1v5.3c0,.8.3,1,1.1,1h2.9c.3,0,1-.2.8.5,0,.5-.5.5-.8.5h-3c-.8,0-1,.2-1,1v5.6c0,.8.3,1,1,1h3.8c.5,0,1-.2,1,.6,0,.6-.6.5-1,.5h-5.1c-.8,0-1-.3-1-1.1v-15.5c0-1,.3-1.3,1.3-1.3.6-.2,1.4-.2,2.4-.2Z"/>
      <path class="cls-1" d="M127.3,78.5c1.1-3,2.1-5.8,3-8.3.2-.5.2-1.1,1-1,.8.3.2.8,0,1.3-.5,1.3-.8,2.7-1.4,3.8-1.6,3.7-2.4,7.4-2.1,11.4,0,.5.5,1.3-.6,1.3-1,0-.6-.8-.6-1.3.8-5.3-1.6-9.8-3.2-14.5-.2-.3-.3-.8-.5-1.1s-.3-.6.2-.8c.3-.2.8,0,.8.5.3,1,.6,1.8,1,2.7.9,1.9,1.6,3.8,2.4,6h0Z"/>
      <path class="cls-1" d="M435.6,78.5c1-2.7,1.9-5.3,2.7-7.7.2-.3.3-.8.5-1.1s.3-.6.8-.5.3.6.2,1c-.5,1.3-1,2.7-1.4,4-1.6,3.7-2.6,7.5-2.1,11.7,0,.5.3,1.3-.6,1.3s-.6-.8-.6-1.1c.8-5.1-1.4-9.8-3-14.4-.2-.3-.3-.6-.3-.8,0-.5-.8-1.1,0-1.4s.8.5,1,1.1c.8,2.3,1.7,4.9,2.8,7.9Z"/>
      <path class="cls-1" d="M232.3,78.5c1.1-3,2.1-5.6,3-8.3.2-.5.2-1.1,1-1,.8.3.2.8.2,1.3-.5,1.3-.8,2.7-1.4,3.8-1.6,3.7-2.4,7.4-2.1,11.4,0,.5.5,1.3-.6,1.3-1,0-.6-.8-.6-1.3.8-5.1-1.4-9.8-3.2-14.4-.2-.3-.3-.8-.5-1.1s-.5-.8.2-1c.6-.2.8.2,1,.6.3,1,.6,1.9,1.1,2.9.6,1.8,1.2,3.8,1.9,5.8h0Z"/>
      <path class="cls-1" d="M145.8,78.5v-6.9c0-1.3-.5-1.6-1.6-1.4-.6,0-1.9.5-1.9-.5,0-.8,1.1-.5,1.8-.5h5.6c.3,0,1,0,.8.6,0,.5-.5.5-.8.5-.8,0-1.9-.3-2.6.2-.6.6-.2,1.9-.2,2.9v12.6c0,.5.3,1.1-.5,1.3-1,0-.6-.6-.6-1.1v-7.7Z"/>
      <path class="cls-1" d="M350.3,78.5v-6.7c0-1.3-.3-1.8-1.6-1.6-.6,0-1.9.6-1.9-.5,0-.8,1.1-.3,1.8-.5h5.4c.3,0,1-.2,1,.5s-.5.5-.8.5c-1.8.2-2.7,1.2-2.7,3v12.6c0,.5.3,1.1-.5,1.1-1,0-.6-.8-.6-1.3-.1-2.3-.1-4.7-.1-7.1h0Z"/>
      <path class="cls-1" d="M404.3,78.1v-7.7c0-.5-.2-1.1.6-1.1s.6.6.6,1.1c0,4.6.2,9.3,0,13.9,0,1.4.5,1.8,1.8,1.6,1-.2,1.9,0,2.7,0,.5,0,1-.2,1.1.5,0,.8-.6.5-1,.5h-4.6c-1,0-1.1-.3-1.1-1.1-.1-2.5-.1-5.2-.1-7.7Z"/>
      <path class="cls-1" d="M272.1,78.2v-7.8c0-.5-.3-1.1.6-1.1,1,0,.6.6.6,1.1v15.7c0,.3.3,1-.5,1s-.6-.6-.6-1.1c-.1-2.7-.1-5.2-.1-7.8Z"/>
      <path class="cls-1" d="M288.1,83.8c.2.5,0,1-.3,1.4-.3-.5-.2-1-.2-1.3,0,.1.2.1.5-.1Z"/>
      <path class="cls-2" d="M63.1,49s0,.1,0,0c5.3,3,6.4,7,5,12-1.6,5.8-5.4,8.8-11.2,9.1-2.2.2-4.3,0-6.4-.5-1.3-.3-1.9-.2-2.1,1.3-.3,2.1-1,4-1.4,6.1-.2,1-.5,1.3-1.6,1-1.3-.5-3.2-.2-3.8-1.3-.6-1,.5-2.6.6-4,.3-1.3.6-2.6,1-3.7.2-.8,0-1.1-.8-1.3-2.13-.67-3.47.07-4,2.2-.5,1.6-.8,3.2-1.1,5-.2.8-.5,1-1.1.6h-.2c-1.4-.3-3.4-.3-4-1.3-.8-.8.3-2.6.6-4,.3-1.3.5-2.4,1-3.5.3-1,0-1.3-.8-1.4-2.9-.6-5.8-1.4-8.6-2.1-.8-.2-1-.5-.6-1.3.6-1.4,1.3-2.9,1.9-4.3.3-.8.8-.8,1.4-.6,1,.3,1.9.5,3,.6,1.3.3,2.1-.3,2.4-1.6,1.9-7.8,4-15.7,5.9-23.5.3-1.6-.3-2.9-1.9-3.4-1.1-.3-2.2-.6-3.2-.8s-1.1-.6-.8-1.4c.5-1.4.3-3.5,1.3-4.3s2.9.5,4.3.8c1.8.3,3.4.8,5.1,1.3,1,.2,1.3.2,1.6-1,.5-2.2,1.1-4.5,1.6-6.7.2-.8.5-1,1.3-.8,1.4.5,3.4.3,4.2,1.3.6,1-.5,2.7-.8,4-.3,1.1-.5,2.4-1,3.5-.2.6,0,.8.6,1.1,2.27.73,3.67,0,4.2-2.2.3-1.6.8-3,1.1-4.6.2-.8.5-1,1.1-.6,1.4.5,3.4.3,4.2,1.3s-.5,2.7-.6,4c-.3,1.4-1.3,3.2-1,4.5.3,1.1,2.6,1.3,3.8,1.9.8.5,1.6.8,2.2,1.3,3.4,2.2,5,5.3,4.5,9.3-.5,3.8-2.4,6.7-6.2,8-.5-.2-.7,0-.7,0h0Z"/>
      <path class="cls-2" d="M119.3,40.5c0,1.4,0,2.9-.2,4.3-.3,2.4-1.4,3.5-3.8,3.7-1.4.2-3,0-4.5,0-.6,0-1-.2-1-.8v-15.2c0-.6.2-1,.8-.8h3.8c2.7.2,4.2,1.4,4.5,4.2.2,1.4.2,3,.4,4.6Z"/>
      <path class="cls-2" d="M109.7,16.2v-6.1c0-.8.2-1.3,1.1-1.1,1.1.2,2.2,0,3.4,0,2.2,0,3.5,1.1,3.8,3.2.5,2.6.5,5.1,0,7.7-.5,2.2-1.8,3.5-4.2,3.7-2.8.2-4.2-1.07-4.2-3.8.1-1.2.1-2.5.1-3.6Z"/>
      <path class="cls-2" d="M221.7,28.8v14.4c0,.8,0,1.6-.2,2.4-.5,2.2-1.9,3.4-4.2,3.4s-3.7-1.1-4.3-3.4c-.2-.8-.2-1.4-.2-2.2V13.8c0-.8,0-1.6.3-2.4.6-2.2,1.9-3.2,4.3-3.2,2.2,0,3.5,1.1,4.2,3.2.2.8.3,1.8.3,2.6-.2,5.1-.2,9.9-.2,14.8h0Z"/>
      <path class="cls-2" d="M334.6,78.1v-6.7c0-1,.3-1.1,1.3-1.1,3.4,0,4.3.8,4.3,4.2v8.3c0,2.7-2.7,4.3-5.1,3.2-.5-.2-.3-.6-.3-1.1-.2-2.2-.2-4.4-.2-6.8h0Z"/>
      <path class="cls-2" d="M243.6,74.1c0-.8.2-1.6,0-2.4-.2-1.3.5-1.6,1.6-1.4,1.3.2,2.7-.2,3.2,1.4.6,1.8.8,3.7-.2,5.4-.5.8-3.7,1.4-4.3,1-.3-.2-.3-.5-.3-.8v-3.2Z"/>
      <path class="cls-2" d="M114.6,74.1c0-.6-.2-1.1,0-1.6.2-.8-.6-1.9.6-2.1,1.9-.3,3.8.2,4.2,1.4.5,1.6.5,3.2,0,4.8-.3,1.1-3.8,2.2-4.6,1.4-.3-.2-.2-.5-.2-.8v-3.1Z"/>
      <path class="cls-2" d="M191.7,74.1v-2.2c-.2-1.3.3-1.6,1.6-1.6,2.9.2,3.7.8,3.7,3.7v1.1c0,2.4-2.6,4-4.8,3-.5-.2-.3-.5-.3-.8-.2-1.2-.2-2.1-.2-3.2Z"/>
      <path class="cls-2" d="M182.1,74.1c0-.6-.2-1.1,0-1.6.2-.8-.8-1.9.6-2.2,2.4-.3,3.8.3,4.3,1.9.3,1.3.3,2.7,0,4-.3,1.4-3.4,2.7-4.8,1.9-.3-.2-.3-.5-.3-.8.2-1.2.2-2.1.2-3.2Z"/>
      <path class="cls-2" d="M413.7,78.1v-5.1c.2-1.9,1-2.9,2.6-2.9s2.7.8,2.9,2.7c.2,3.5.2,7,0,10.4,0,1.9-1.3,2.9-2.9,2.7-1.6,0-2.4-1.1-2.6-2.9,0,0,0-4.9,0-4.9Z"/>
      <path class="cls-2" d="M401.3,78.2v4.6c-.2,2.1-1.1,3.2-2.7,3.2-1.8,0-2.7-1.1-2.7-3.2v-9.9c0-1.8,1-2.7,2.4-2.9,1.6-.2,2.7.6,2.9,2.4.1,2-.1,3.9.1,5.8h0Z"/>
      <path class="cls-2" d="M153.5,78.1v-5.1c.2-1.9,1-2.9,2.6-2.9s2.7.8,2.9,2.7c.2,3.5.2,7,0,10.4,0,1.9-1.3,2.9-2.9,2.7-1.6,0-2.4-1.1-2.6-2.9-.2-1.6,0-3.2,0-4.9Z"/>
      <path class="cls-2" d="M317,71.2c.8,3.4,1.6,6.9,2.4,10.2.2.6-.2.6-.6.6h-4.5c.8-3.7,1.6-7.4,2.4-10.9.1.1.3.1.3.1h0Z"/>
      <path class="cls-2" d="M134.6,74.4c0-.8.2-1.8,0-2.6-.2-1.4.5-1.8,1.8-1.6,2.7.2,3.4.8,3.5,3.5v1.3c0,3-1.6,4.3-4.6,3.7-.6-.2-.6-.5-.6-1-.1-1.1-.1-2.2-.1-3.3h0Z"/>
      <path class="cls-1" d="M50.2,62.2c-2.9-.2-5.6-.8-8.5-1.6-.6-.2-1-.5-.6-1.1.8-3.4,1.6-6.7,2.6-9.9.2-.5.2-1,1-.8,3.4.8,6.9,1.6,9.9,3.5,1.8,1.1,3.2,2.7,3,5-.2,2.7-1.9,4.5-4.6,5-1-.1-1.8-.1-2.8-.1Z"/>
      <path class="cls-1" d="M53.2,44.5c-2.7,0-5-.6-7.2-1.3-.8-.2-.8-.5-.6-1.3.8-3,1.4-5.9,2.2-9,.2-.5.3-.8,1-.6,3,.8,6.2,1.3,8.8,3.4,1.4,1.1,2.1,2.7,1.8,4.5s-1.3,3-3,3.7c-1.2.6-2.2.7-3,.6Z"/>
    </g>
  </g>
</svg>