<?xml version="1.0" encoding="UTF-8"?>
<svg id="Capa_2" data-name="Capa 2" xmlns="http://www.w3.org/2000/svg" viewBox="0 0 300 80.02">
  <defs>
    <style>
      .cls-1 {
        fill: #1d4a77;
      }

      .cls-2 {
        fill: #262626;
      }
    </style>
  </defs>
  <g id="Warstwa_1" data-name="Warstwa 1">
    <g>
      <path class="cls-1" d="M.17,0c.59.57,1.32.95,2.02,1.39,4.79,3.09,9.6,6.16,14.41,9.22.44.27.55.57.55,1.05-.02,10.69,0,21.39,0,32.08,0,5.48,1.91,10.17,5.88,13.97,3.07,2.94,6.74,4.64,11.01,5.06,8.61.86,16.6-4.1,19.58-12.16,3.99-10.71-2.56-22.6-13.78-24.87-6.58-1.32-12.31.44-17.14,5.08-.13.11-.17.29-.25.44-.06-.04-.13-.11-.21-.15v-.57c0-6.34,0-12.69-.02-19.03,0-.5.17-.69.61-.86,5.06-2,10.34-2.9,15.73-2.35,14.89,1.51,25.29,9.26,30.99,23.13,1.95,4.73,2.6,9.73,2.25,14.83-.63,9.66-4.54,17.79-11.64,24.35-5.1,4.73-11.15,7.65-18.04,8.86-3.3.57-6.62.71-9.92.36-6.87-.74-13.07-3.21-18.51-7.52-6.83-5.42-11.13-12.44-12.96-20.94-.53-2.44-.71-4.94-.71-7.44C.02,29.49,0,15.06,0,.63,0,.44.02.23.02.04c.06-.04.11-.04.15-.04Z"/>
      <path class="cls-1" d="M300,62.2c-2.79,0-5.61-.02-8.4.02-.48,0-.63-.13-.61-.61.04-.95.02-1.91.02-2.98-.84.78-1.6,1.47-2.44,2.04-2.46,1.68-5.21,2.23-8.15,2.1-2.25-.08-4.37-.55-6.3-1.74-2.81-1.74-4.26-4.31-4.47-7.56-.17-2.44.23-4.75,1.7-6.79,1.6-2.21,3.82-3.42,6.39-4.03,4.24-1.01,8.47-.8,12.63.5.74.23.71.23.69-.57-.08-4.26-3.07-5.65-6.11-5.82-3.32-.19-6.51.36-9.6,1.55-.4.17-.59.13-.74-.34-.65-2.06-1.32-4.12-2.02-6.16-.13-.38-.04-.5.32-.65,4.2-1.76,8.55-2.58,13.11-2.42,2.25.08,4.45.32,6.55,1.13,3.8,1.47,5.92,4.37,6.91,8.19.23.92.36,1.89.53,2.86,0,7.08,0,14.18,0,21.26Z"/>
      <path class="cls-1" d="M110.18,39.62c1.68.67,3.19,1.49,4.56,2.58,2.25,1.81,3.3,4.18,3.45,7,.13,2.29-.08,4.5-1.22,6.55-1.6,2.9-4.2,4.47-7.25,5.42-2.46.76-5,1.03-7.56,1.05-6.66.02-13.3,0-19.96.02-.57,0-.71-.13-.71-.71.02-13.93.02-27.86,0-41.78,0-.61.17-.74.76-.74,6.97.04,13.95-.04,20.92.08,3.55.06,6.89,1.05,9.58,3.57,2.5,2.33,3.28,5.29,3.02,8.57-.27,3.7-2.18,6.41-5.38,8.23-.04,0-.08.04-.21.15Z"/>
      <path class="cls-1" d="M191.84,42.12c-1.26,3.97-2.5,7.81-3.72,11.66-.88,2.73-1.74,5.46-2.6,8.21-.11.36-.27.5-.67.5-2.44-.02-4.87-.02-7.31,0-.48,0-.63-.19-.74-.59-2.6-8.59-5.23-17.16-7.86-25.75-.65-2.16-1.3-4.35-2-6.49-.13-.42-.11-.57.38-.57,2.79.02,5.61.02,8.4,0,.4,0,.55.13.65.5,1.68,6.39,3.38,12.77,5.06,19.16.02.11.06.19.15.44.59-1.91,1.13-3.66,1.66-5.38,1.47-4.77,2.96-9.52,4.41-14.28.13-.44.32-.57.76-.57,2.31.02,4.6.02,6.91,0,.46,0,.61.15.74.57,1.97,6.39,3.97,12.77,5.97,19.16.04.15.06.29.23.44.48-1.81.99-3.57,1.47-5.36,1.26-4.71,2.54-9.41,3.8-14.14.11-.4.25-.57.74-.57,2.69.02,5.4.04,8.09,0,.61,0,.61.19.44.65-2.56,8.21-5.1,16.45-7.65,24.66-.76,2.48-1.53,4.94-2.27,7.44-.15.5-.38.65-.9.65-2.35-.04-4.68-.04-7.04,0-.57,0-.78-.17-.92-.69-1.97-6.41-3.99-12.81-6.01-19.22-.02-.08-.06-.19-.17-.44Z"/>
      <path class="cls-1" d="M240.26,58.57c-1.05,1.09-2.1,1.91-3.26,2.6-2.04,1.2-4.29,1.62-6.6,1.64-2.52,0-4.98-.42-7.14-1.81-2.84-1.83-4.26-4.45-4.39-7.81-.08-2.31.29-4.47,1.66-6.43,1.58-2.25,3.82-3.49,6.43-4.1,4.29-1.03,8.55-.8,12.75.55.5.17.61.11.61-.42,0-4.35-2.94-5.8-6.07-6.01-3.34-.21-6.55.36-9.66,1.58-.46.19-.59.04-.71-.36-.65-2.04-1.3-4.08-2-6.09-.15-.4-.06-.55.32-.71,4.71-2.02,9.64-2.71,14.73-2.33,2.18.15,4.33.63,6.28,1.7,3.26,1.79,4.92,4.68,5.69,8.21.36,1.66.4,3.36.4,5.04v17.73c0,.53-.08.69-.65.69-2.58-.04-5.17-.04-7.75,0-.55,0-.65-.17-.63-.65.04-.97,0-1.89,0-3.02Z"/>
      <path class="cls-1" d="M161.25,53.4v7.12c0,.32-.17.4-.38.53-1.81.99-3.76,1.55-5.82,1.66-1.74.11-3.47.04-5.17-.44-3.11-.88-4.71-3.13-5.36-6.16-.27-1.24-.27-2.5-.27-3.76,0-4.85-.02-9.68.02-14.54,0-.63-.19-.78-.78-.74-.9.04-1.83,0-2.73.02-.4.02-.53-.13-.53-.53.02-2.33.02-4.64,0-6.97,0-.46.19-.53.57-.53.95.02,1.91-.02,2.88.02.46.02.59-.13.59-.59-.02-2.42,0-4.83-.02-7.23,0-.55.17-.67.69-.67,2.65.02,5.29.02,7.96,0,.53,0,.69.13.69.67-.02,2.42,0,4.83-.02,7.23,0,.46.13.59.59.57,2.18-.02,4.39,0,6.58-.02.48,0,.67.08.65.63-.04,2.27-.02,4.52,0,6.79,0,.48-.11.63-.61.61-2.16-.02-4.35,0-6.51-.02-.53,0-.71.11-.71.67.02,4.39,0,8.78.02,13.17,0,.48.04.97.13,1.43.25,1.32,1.2,2.1,2.63,2.16,1.51.06,2.96-.23,4.35-.86.15-.06.29-.13.57-.23Z"/>
      <path class="cls-1" d="M264.94,39.66c0,7.27,0,14.56.02,21.83,0,.55-.08.74-.69.71-2.67-.04-5.34-.02-8.02,0-.46,0-.63-.06-.63-.59.02-14.64.02-29.28,0-43.93,0-.5.17-.61.63-.61,2.65.02,5.29.02,7.96,0,.59,0,.76.13.76.74-.02,7.29-.02,14.58-.02,21.85Z"/>
      <path class="cls-1" d="M133.81,45.71c0,5.27,0,10.57.02,15.84,0,.55-.15.67-.69.67-2.69-.02-5.38-.02-8.09,0-.46,0-.63-.06-.63-.59.02-10.65.02-21.28,0-31.93,0-.48.11-.61.61-.61,2.71.02,5.44.02,8.15,0,.55,0,.63.17.63.65,0,5.31,0,10.63,0,15.97Z"/>
      <path class="cls-1" d="M129.07,25.42c-1.45,0-2.92-.02-4.37,0-.4,0-.5-.11-.5-.5.02-2.44.02-4.87,0-7.31,0-.44.15-.53.55-.53,2.92.02,5.82.02,8.74,0,.46,0,.59.13.59.59-.02,2.39-.02,4.79,0,7.16,0,.44-.11.59-.57.59-1.47-.02-2.96,0-4.43,0Z"/>
      <path class="cls-2" d="M291.18,50.27c.13,3.8-2.88,5.5-5.34,5.9-1.51.25-3.03.32-4.5-.23-1.6-.57-2.58-1.66-2.69-3.38-.11-1.7.5-3.11,2.04-3.99,1.7-.97,3.59-1.09,5.48-.97,1.47.08,2.9.42,4.31.92.53.19.8.44.69,1.03-.04.23,0,.48,0,.71Z"/>
      <path class="cls-2" d="M97.33,53.88c-2.02,0-4.03-.02-6.07,0-.42,0-.57-.11-.55-.55.02-2.81.02-5.65,0-8.47,0-.42.11-.55.55-.55,3.78.02,7.56,0,11.34.02,1.34.02,2.69.21,3.91.84,1.76.92,2.46,2.42,2.33,4.35-.11,1.68-.92,2.84-2.44,3.55-1.05.48-2.16.74-3.32.76-1.93.02-3.84.02-5.76.04t0,0Z"/>
      <path class="cls-2" d="M96.42,27.27c1.58.06,3.49-.13,5.38.13.84.11,1.66.32,2.42.69,1.53.78,2.21,2.08,2.21,3.76s-.69,3-2.29,3.76c-1.34.63-2.77.84-4.22.86-2.9.04-5.78,0-8.68.02-.42,0-.55-.13-.55-.55.02-2.71.02-5.44,0-8.15,0-.44.13-.55.55-.55,1.64.02,3.24.02,5.19.02Z"/>
      <path class="cls-2" d="M233.26,56.32c-.97.06-1.85-.06-2.71-.38-1.53-.59-2.5-1.64-2.63-3.3-.13-1.68.44-3.07,1.93-3.97,1.16-.71,2.46-.97,3.78-1.05,2.16-.13,4.26.23,6.3,1.01.38.15.55.34.5.76-.04.76.06,1.53-.11,2.27-.55,2.5-2.31,3.76-4.62,4.41-.82.21-1.66.32-2.46.25Z"/>
    </g>
  </g>
</svg>