<?xml version="1.0" encoding="UTF-8"?>
<svg id="Capa_2" data-name="Capa 2" xmlns="http://www.w3.org/2000/svg" viewBox="0 0 599.96 108.77">
  <defs>
    <style>
      .cls-1 {
        fill: #fff;
      }
    </style>
  </defs>
  <g id="layer">
    <g>
      <g>
        <path class="cls-1" d="M67.33,82.97l-13.3,6.53v-49.05l13.3-6.53v49.05ZM85.38,74.1l-13.3,6.53V31.58l13.3-6.53h0v49.05ZM90.13,71.77V22.71l13.3-6.53v49.05l-13.3,6.53Z"/>
        <path class="cls-1" d="M49.38,76.28v13.2L0,65.23v-13.2l49.38,24.24ZM49.38,58.34v13.2L0,47.29v-13.2l49.38,24.24ZM49.38,40.42v13.2L0,29.38v-13.2l49.38,24.24Z"/>
      </g>
      <g>
        <path class="cls-1" d="M134.84.63v75.75h38.76c18.18,0,29.8-8.21,29.8-21.21,0-9.6-5.93-17.17-15.28-19.06,7.83-2.27,12.88-8.71,12.88-16.29,0-11.62-11.36-19.06-29.04-19.06h-37.12v-.13ZM157.19,17.55h13.64c4.42,0,7.2,2.4,7.2,6.31s-2.78,6.57-7.2,6.57h-13.64v-12.88ZM157.19,45.71h13.64c5.68,0,9.34,2.53,9.34,6.69,0,4.42-3.54,7.2-9.34,7.2h-13.64v-13.89Z"/>
        <rect class="cls-1" x="216.91" y=".63" width="22.47" height="75.75"/>
        <path class="cls-1" d="M311.23,18.56V.63h-58.2v17.93h17.8v57.83h22.6V18.56h17.8Z"/>
        <g>
          <path class="cls-1" d="M359.89,0c-23.48,0-40.78,16.29-40.78,38.38s16.92,39.01,40.02,39.01c11.49,0,23.86-5.68,32.07-14.65l-13-13.89c-5.18,5.3-12.25,8.71-18.05,8.71-10.23,0-18.05-8.46-18.05-19.57s7.83-19.44,18.05-19.44c6.31,0,13.26,4.04,18.05,10.1l13-15.28c-7.7-8.21-19.95-13.38-31.31-13.38Z"/>
          <path class="cls-1" d="M438.05,0c-23.74,0-41.29,16.16-41.29,38.51s17.55,38.89,41.29,38.89,41.29-16.67,41.29-38.89c0-22.22-17.55-38.51-41.29-38.51ZM438.43,18.81c9.97,0,17.93,8.33,17.93,19.82s-7.95,19.95-17.93,19.95-18.56-8.59-18.56-19.95,8.46-19.82,18.56-19.82Z"/>
          <rect class="cls-1" x="492.09" y=".63" width="22.47" height="75.75"/>
          <path class="cls-1" d="M599.96,76.39V.63h-20.58v42.3L547.31.63h-19.19v75.75h20.58v-42.17l32.07,42.17h19.19Z"/>
        </g>
      </g>
      <g>
        <path class="cls-1" d="M156.27,108.55v-18.86h-6.63l-4.15,9.83-4.15-9.83h-6.63v18.86h5.46v-10.34l3.2,8.52h4.08l3.2-8.52v10.34h5.61Z"/>
        <path class="cls-1" d="M172.87,105.93l.95,2.69h6.63l-7.65-18.86h-6.41l-7.94,18.86h6.41l.95-2.69h7.06ZM171.35,101.41h-3.93l1.97-5.53,1.97,5.53Z"/>
        <path class="cls-1" d="M194.29,98.65v4.37c-.95.36-1.82.66-2.48.66-2.48,0-4.22-1.89-4.22-4.52s1.75-4.44,4.22-4.44c1.53,0,3.42.8,4.66,1.97l3.5-4.3c-2.04-1.75-5.24-2.91-8.16-2.91-6.19,0-10.63,4.08-10.63,9.61s4.3,9.69,10.2,9.69c2.69,0,6.19-1.02,8.23-2.4v-7.79h-5.32v.07Z"/>
        <path class="cls-1" d="M215.84,105.93l.95,2.69h6.63l-7.65-18.86h-6.41l-7.94,18.86h6.41l.95-2.69h7.06ZM214.31,101.41h-3.93l1.97-5.53,1.97,5.53Z"/>
        <path class="cls-1" d="M241.92,93.62v-3.93h-16.82v4.81h8.45l-8.81,10.2v3.93h17.33v-4.81h-8.96l8.81-10.2Z"/>
        <rect class="cls-1" x="245.05" y="89.69" width="6.26" height="18.86"/>
        <path class="cls-1" d="M273.38,108.55v-18.86h-5.61v9.69l-7.43-9.69h-5.24v18.86h5.68v-9.61l7.43,9.61h5.17Z"/>
        <path class="cls-1" d="M293.11,94.42v-4.73h-15.95v18.86h16.24v-4.73h-9.98v-2.33h8.81v-4.73h-8.81v-2.33h9.69Z"/>
      </g>
    </g>
  </g>
</svg>