<?xml version="1.0" encoding="UTF-8"?>
<svg id="Capa_2" data-name="Capa 2" xmlns="http://www.w3.org/2000/svg" viewBox="0 0 446 115.59">
  <defs>
    <style>
      .cls-1 {
        fill: #FFFFFF;
      }
    </style>
  </defs>
  <g id="Layer_1" data-name="Layer 1">
    <g>
      <path class="cls-1" d="M71.61,84.07l-20.59,8.94v-.9c-4.11,1.01-8.32,1.62-12.55,1.81-19.33-.18-34.68-10.29-34.86-22.3v-4.52c6.32,9.21,19.33,15.44,34.86,15.17,5.12.16,10.23-.45,15.17-1.81l1.81-4.52c-5.5,1.71-11.22,2.62-16.98,2.71-19.33.09-34.68-10.02-34.86-22.3v-3.61c6.32,8.58,19.24,14.72,34.86,14.36,6.75.37,13.5-.87,19.69-3.61l.9-4.51c-6.38,3.19-13.46,4.74-20.59,4.51-19.33.27-34.68-9.84-34.86-22.3v-3.61c6.32,8.76,19.33,14.9,34.86,15.17,8.43-.25,16.7-2.38,24.2-6.23l.9-5.33c-6.23,4.6-15.35,7.59-25.01,8.04-19.42-.45-34.77-10.57-34.95-23.3C3.79,13.91,19.14,3.7,38.47,3.61c11.56.18,22.21,4.24,28.63,10.75l.63.99h4.51l-.63-1.08C65.2,5.69,52.56,0,38.47,0,17.07,0,0,11.83,0,25.92v46.51c.72,13.82,17.43,25.1,38.47,25.1,13.91,0,26.37-5.51,33.14-13.45Z"/>
      <path class="cls-1" d="M63.22,115.59l7.22-30.7-20.77,9.03,12.64-53.28h-24.38l6.32-26.19h77.66l-6.32,26.19h-25.29l-5.42,14.45,27.99-11.74-49.67,72.24ZM75.86,78.57l-3.61,18.06,29.8-45.15-24.38,10.84,10.84-25.29h24.38l4.51-18.96H46.96l-4.51,18.96h24.38l-11.74,50.57,20.77-9.03Z"/>
      <path class="cls-1" d="M170.22,31.98c-.04,1.3-.35,2.58-.9,3.76s-1.34,2.23-2.31,3.09c-2.15,1.74-4.87,2.63-7.64,2.5-1.54.07-3.07-.2-4.48-.81-1.41-.6-2.67-1.52-3.68-2.68-1.98-2.33-2.97-5.52-2.97-9.58v-1.65c-.05-2.36.42-4.7,1.37-6.85.82-1.87,2.19-3.46,3.92-4.55,2.08-1.18,4.47-1.72,6.85-1.55,2.39.16,4.68,1.02,6.58,2.47,1.98,1.82,3.16,4.34,3.3,7.02h-5.56c0-1.4-.52-2.75-1.45-3.79-1.07-.86-2.43-1.29-3.8-1.18-.81-.05-1.61.1-2.34.45-.73.35-1.35.88-1.82,1.54-.92,1.33-1.39,3.39-1.42,6.18v2.04c0,2.91.44,5.04,1.32,6.39.46.67,1.08,1.21,1.82,1.57.73.35,1.55.51,2.36.45,1.38.11,2.76-.31,3.84-1.18.93-.98,1.45-2.29,1.46-3.64h5.56Z"/>
      <path class="cls-1" d="M196.02,28.09c.05,2.4-.43,4.79-1.41,6.98-.86,1.91-2.26,3.52-4.03,4.63-1.82,1.06-3.89,1.63-5.99,1.63-2.11,0-4.18-.55-6-1.61-1.78-1.1-3.2-2.7-4.07-4.6-1-2.15-1.5-4.51-1.46-6.88v-1.33c-.05-2.41.44-4.81,1.44-7.01.87-1.91,2.27-3.53,4.05-4.65,1.82-1.06,3.89-1.62,5.99-1.62s4.17.56,5.99,1.62c1.78,1.12,3.19,2.73,4.05,4.65.99,2.19,1.49,4.58,1.44,6.99v1.2h0ZM190.39,26.87c0-2.83-.51-4.98-1.52-6.45-.5-.68-1.15-1.23-1.9-1.62-.75-.38-1.58-.58-2.42-.59-.84,0-1.67.19-2.43.57-.75.38-1.41.93-1.91,1.6-1.01,1.45-1.52,3.58-1.54,6.38v1.32c-.13,2.24.4,4.47,1.52,6.41.49.7,1.13,1.27,1.88,1.66.75.4,1.58.61,2.43.62.85,0,1.69-.19,2.44-.57.76-.38,1.41-.94,1.91-1.63,1-1.46,1.51-3.6,1.52-6.4v-1.32Z"/>
      <path class="cls-1" d="M205.97,40.91h-5.56V13.94h5.56v26.96Z"/>
      <path class="cls-1" d="M233.06,40.91h-5.55l-10.82-17.74v17.74h-5.56V13.94h5.56l10.83,17.78V13.94h5.54v26.96h0Z"/>
      <path class="cls-1" d="M257.66,18.44h-8.26v22.46h-5.55v-22.46h-8.15v-4.5h21.96v4.5h0Z"/>
      <path class="cls-1" d="M277.05,29.22h-10.67v7.22h12.52v4.46h-18.08V13.94h18.04v4.5h-12.48v6.43h10.67v4.35Z"/>
      <path class="cls-1" d="M287.73,36.44h11.8v4.46h-17.35V13.94h5.56v22.5Z"/>
      <path class="cls-1" d="M318.91,29.22h-10.67v7.22h12.52v4.46h-18.08V13.94h18.04v4.5h-12.48v6.43h10.67v4.35Z"/>
      <path class="cls-1" d="M345.38,37.55c-1.14,1.29-2.6,2.25-4.24,2.79-1.95.68-4.01,1.02-6.07.99-2.15.05-4.27-.48-6.14-1.53-1.77-1.03-3.2-2.58-4.07-4.43-1-2.14-1.51-4.47-1.47-6.83v-1.83c-.06-2.4.41-4.79,1.36-6.99.82-1.87,2.19-3.45,3.93-4.52,1.82-1.07,3.9-1.61,6.01-1.57,3.2,0,5.7.76,7.5,2.29,1.9,1.71,3.05,4.1,3.2,6.66h-5.41c-.12-1.29-.7-2.49-1.64-3.39-1-.76-2.24-1.15-3.49-1.07-.84-.04-1.68.13-2.43.5-.76.37-1.4.93-1.88,1.63-.99,1.42-1.49,3.53-1.5,6.33v1.72c0,2.83.54,4.96,1.61,6.41.55.72,1.27,1.3,2.09,1.67.82.38,1.73.55,2.63.49,2.09,0,3.57-.44,4.46-1.33v-4.65h-5.06v-4.09h10.61v10.76h0Z"/>
      <path class="cls-1" d="M359.85,31.04h-4.43v9.87h-5.55V13.94h10.02c3.18,0,5.64.71,7.37,2.13.87.73,1.55,1.66,2,2.7.45,1.04.65,2.18.59,3.31.06,1.62-.36,3.22-1.2,4.6-.89,1.31-2.15,2.33-3.62,2.93l5.83,11.02v.26h-5.96l-5.06-9.87ZM355.42,26.54h4.48c1.18.07,2.34-.31,3.24-1.07.39-.38.69-.84.89-1.34s.29-1.05.26-1.59c.03-.55-.05-1.1-.24-1.61-.19-.52-.48-.99-.85-1.39-.45-.4-.98-.7-1.55-.88-.57-.19-1.17-.26-1.77-.21h-4.46v8.09Z"/>
      <path class="cls-1" d="M389.29,35.35h-9.74l-1.85,5.56h-5.91l10.04-26.96h5.15l10.09,26.96h-5.91l-1.87-5.56ZM381.04,30.85h6.74l-3.39-10.09-3.35,10.09Z"/>
      <path class="cls-1" d="M405.15,31.41v9.5h-5.56V13.95h10.52c1.84-.04,3.67.34,5.34,1.11,1.47.68,2.7,1.78,3.55,3.16.84,1.41,1.27,3.02,1.24,4.66.06,1.18-.16,2.36-.63,3.44-.47,1.08-1.18,2.04-2.08,2.81-1.81,1.52-4.31,2.29-7.51,2.29h-4.87ZM405.15,26.91h4.96c1.21.08,2.41-.29,3.36-1.04.4-.38.71-.84.91-1.35.2-.51.28-1.06.25-1.61.03-.59-.06-1.17-.26-1.72s-.51-1.05-.9-1.49c-.42-.42-.92-.75-1.48-.96-.55-.22-1.15-.32-1.74-.3h-5.1v8.46h0Z"/>
      <path class="cls-1" d="M446,40.91h-5.56v-11.56h-10.83v11.56h-5.56V13.94h5.56v10.93h10.83v-10.93h5.56v26.96Z"/>
      <path class="cls-1" d="M165.58,69.79h-6.88v18.72h-4.63v-18.72h-6.79v-3.75h18.3v3.75Z"/>
      <path class="cls-1" d="M172.27,73.63c.53-.67,1.21-1.22,1.98-1.59.77-.37,1.62-.55,2.48-.54,3.62,0,5.46,2.1,5.51,6.31v10.7h-4.46v-10.57c.06-.76-.16-1.51-.62-2.12-.27-.25-.6-.44-.95-.56-.35-.12-.73-.16-1.1-.12-.57-.04-1.13.08-1.64.35-.5.27-.92.67-1.2,1.16v11.87h-4.46v-23.7h4.46v8.83h0Z"/>
      <path class="cls-1" d="M193.28,88.82c-1.1.04-2.19-.13-3.22-.52-1.03-.39-1.97-.98-2.76-1.73-.78-.79-1.38-1.73-1.78-2.76-.4-1.03-.58-2.14-.52-3.24v-.43c-.03-1.55.31-3.09.97-4.5.6-1.27,1.56-2.33,2.76-3.05,1.23-.73,2.64-1.1,4.07-1.07,1-.05,2,.11,2.93.49.93.37,1.77.94,2.46,1.67,1.31,1.44,1.97,3.48,1.97,6.13v1.82h-10.63c.1,1,.56,1.94,1.3,2.62.76.67,1.74,1.02,2.76.99.77.04,1.54-.12,2.24-.44.7-.33,1.31-.81,1.79-1.43l2.19,2.45c-.69.97-1.63,1.73-2.72,2.21-1.19.54-2.49.81-3.8.79ZM192.78,75.1c-.4-.02-.8.06-1.18.21-.37.15-.71.39-.98.69-.61.73-.98,1.63-1.06,2.57h6.2v-.36c.03-.84-.25-1.66-.8-2.3-.29-.28-.63-.5-1.01-.64-.38-.14-.78-.2-1.18-.17h0Z"/>
      <path class="cls-1" d="M211.77,88.49v-13.43h-2.48v-3.27h2.48v-1.42c-.05-.8.07-1.6.35-2.35.28-.75.71-1.43,1.27-2.01,1.24-1.09,2.86-1.65,4.51-1.55.77.02,1.53.12,2.27.31l-.05,3.46c-.45-.1-.9-.15-1.36-.14-1.68,0-2.51.79-2.51,2.36v1.34h3.32v3.27h-3.32v13.43h-4.48Z"/>
      <path class="cls-1" d="M231.89,86.82c-.55.67-1.26,1.19-2.05,1.54s-1.66.51-2.52.46c-.75.05-1.51-.06-2.22-.33s-1.35-.68-1.88-1.22c-1.03-1.28-1.54-2.89-1.44-4.52v-10.94h4.46v10.8c0,1.74.79,2.61,2.38,2.61.62.07,1.24-.05,1.79-.33.55-.28,1.01-.71,1.33-1.25v-11.83h4.48v16.7h-4.2l-.12-1.7Z"/>
      <path class="cls-1" d="M244.9,67.7v4.11h2.86v3.27h-2.86v8.33c-.04.47.08.94.35,1.33.19.16.4.27.64.34.23.07.48.09.72.06.44,0,.88-.03,1.31-.11v3.38c-.88.27-1.79.4-2.7.4-3.13,0-4.72-1.58-4.78-4.74v-9h-2.44v-3.27h2.44v-4.11h4.46Z"/>
      <path class="cls-1" d="M260.26,86.82c-.55.67-1.26,1.19-2.05,1.54s-1.65.51-2.52.46c-.75.05-1.51-.06-2.22-.33s-1.35-.68-1.88-1.22c-1.03-1.28-1.54-2.89-1.44-4.52v-10.94h4.46v10.8c0,1.74.79,2.61,2.38,2.61.62.07,1.24-.05,1.79-.33.55-.28,1.01-.71,1.33-1.25v-11.83h4.48v16.7h-4.2l-.12-1.7Z"/>
      <path class="cls-1" d="M277.32,76c-.53-.08-1.07-.12-1.61-.12-1.69,0-2.79.57-3.32,1.71v10.93h-4.46v-16.7h4.21l.12,1.99c.34-.69.87-1.27,1.53-1.68.66-.41,1.42-.62,2.19-.62.47,0,.94.06,1.39.2l-.06,4.29Z"/>
      <path class="cls-1" d="M286.86,88.82c-1.1.04-2.19-.13-3.22-.52s-1.97-.98-2.76-1.73c-.78-.79-1.39-1.73-1.78-2.76-.4-1.03-.58-2.14-.52-3.24v-.43c-.03-1.55.31-3.09.97-4.5.6-1.27,1.56-2.33,2.76-3.05,1.23-.73,2.64-1.1,4.07-1.07,1-.05,2,.11,2.93.49.93.37,1.77.94,2.46,1.67,1.31,1.44,1.97,3.48,1.97,6.13v1.82h-10.63c.1,1,.56,1.94,1.3,2.62.76.67,1.74,1.02,2.76.99.77.04,1.54-.12,2.24-.44.7-.33,1.31-.81,1.79-1.43l2.19,2.45c-.69.97-1.63,1.73-2.72,2.21-1.19.54-2.49.81-3.8.79ZM286.36,75.1c-.4-.02-.8.06-1.17.21-.37.15-.7.39-.98.69-.61.73-.98,1.63-1.06,2.57h6.2v-.36c.03-.84-.25-1.66-.8-2.3-.29-.28-.63-.5-1.01-.64-.38-.14-.78-.2-1.18-.17h0Z"/>
      <path class="cls-1" d="M303.44,80.01c-.03-1.53.3-3.05.96-4.43.6-1.25,1.56-2.3,2.76-3.01,1.27-.73,2.71-1.1,4.17-1.06,1.01-.04,2.02.12,2.97.48.95.36,1.81.9,2.55,1.59,1.48,1.5,2.33,3.51,2.39,5.62l.03,1.14c.11,2.26-.66,4.46-2.14,6.17-1.55,1.49-3.61,2.32-5.76,2.32-2.15,0-4.21-.83-5.76-2.32-1.51-1.74-2.28-4-2.15-6.3v-.2ZM307.9,80.33c-.08,1.28.23,2.55.9,3.64.3.39.68.71,1.12.92s.93.33,1.42.33c.49,0,.98-.11,1.42-.33.44-.22.83-.53,1.13-.92.7-1.2,1.02-2.59.91-3.98.08-1.27-.24-2.53-.91-3.62-.28-.41-.67-.75-1.11-.97s-.95-.33-1.45-.31c-.5-.02-.99.08-1.43.31-.44.22-.82.56-1.1.97-.68,1.2-.99,2.57-.89,3.95h0Z"/>
      <path class="cls-1" d="M323.24,88.49v-13.43h-2.48v-3.27h2.48v-1.42c-.05-.8.07-1.6.35-2.35.28-.75.71-1.43,1.27-2.01,1.24-1.09,2.86-1.65,4.51-1.55.77.02,1.53.12,2.27.31l-.05,3.46c-.45-.1-.9-.15-1.36-.14-1.68,0-2.52.79-2.52,2.36v1.34h3.32v3.27h-3.32v13.43h-4.48Z"/>
      <path class="cls-1" d="M345.38,71.81l.14,1.87c.58-.71,1.31-1.28,2.14-1.66.83-.38,1.74-.56,2.66-.52.91-.08,1.82.12,2.62.58.79.45,1.43,1.14,1.81,1.97.55-.82,1.3-1.48,2.17-1.93.88-.45,1.86-.66,2.84-.62.75-.06,1.5.05,2.2.33s1.33.7,1.84,1.26c.98,1.38,1.45,3.07,1.33,4.76v10.66h-4.48v-10.65c.06-.73-.14-1.47-.56-2.08-.26-.24-.57-.43-.91-.54-.34-.11-.7-.15-1.05-.11-.61-.03-1.21.14-1.71.49s-.88.85-1.07,1.43l.02,11.47h-4.46v-10.63c.07-.75-.14-1.49-.57-2.1-.26-.24-.57-.42-.9-.53-.33-.11-.69-.15-1.04-.11-.56-.03-1.12.1-1.61.38-.49.28-.88.7-1.14,1.2v11.81h-4.46v-16.7h4.18Z"/>
      <path class="cls-1" d="M367.86,80.01c-.03-1.53.3-3.05.96-4.43.6-1.25,1.56-2.3,2.76-3.01,1.27-.73,2.71-1.1,4.17-1.06,1.01-.04,2.02.12,2.97.48.95.36,1.81.9,2.55,1.59,1.48,1.5,2.33,3.51,2.39,5.62l.03,1.14c.11,2.26-.66,4.46-2.14,6.17-1.55,1.49-3.61,2.32-5.76,2.32-2.15,0-4.21-.83-5.76-2.32-1.51-1.74-2.28-4-2.15-6.3v-.2h0ZM372.32,80.33c-.08,1.28.23,2.55.9,3.64.3.39.68.71,1.12.92s.92.33,1.42.33.98-.11,1.42-.33c.44-.22.83-.53,1.13-.92.7-1.2,1.02-2.59.91-3.98.08-1.27-.24-2.53-.91-3.62-.28-.41-.67-.75-1.11-.97-.45-.23-.95-.33-1.45-.31-.5-.02-.99.08-1.43.31-.44.22-.82.56-1.1.97-.68,1.2-.99,2.57-.89,3.95h0Z"/>
      <path class="cls-1" d="M390.53,71.81l.14,1.93c.57-.73,1.3-1.31,2.13-1.7.83-.39,1.75-.57,2.67-.54.73-.06,1.47.05,2.15.32.68.27,1.3.69,1.8,1.23.96,1.36,1.43,3,1.33,4.66v10.79h-4.46v-10.68c.07-.74-.15-1.48-.62-2.06-.28-.24-.61-.42-.96-.53-.35-.11-.72-.15-1.09-.11-.57-.02-1.14.11-1.64.4-.5.28-.91.7-1.18,1.21v11.77h-4.46v-16.7h4.2Z"/>
      <path class="cls-1" d="M411.83,88.82c-1.1.04-2.19-.13-3.22-.52-1.03-.39-1.97-.98-2.76-1.73-.78-.79-1.39-1.73-1.78-2.76-.4-1.03-.58-2.14-.52-3.24v-.43c-.03-1.55.3-3.09.97-4.5.6-1.27,1.55-2.33,2.75-3.05,1.23-.73,2.64-1.1,4.07-1.07,1-.05,2,.11,2.93.49.93.37,1.77.94,2.46,1.67,1.31,1.44,1.97,3.48,1.97,6.13v1.82h-10.63c.1,1,.57,1.94,1.3,2.62.76.67,1.74,1.02,2.76.99.77.04,1.54-.12,2.24-.44.7-.33,1.31-.81,1.78-1.43l2.19,2.45c-.69.97-1.63,1.73-2.72,2.21-1.19.54-2.49.81-3.79.79ZM411.32,75.1c-.4-.02-.8.06-1.18.21-.37.15-.7.39-.98.69-.61.73-.97,1.63-1.06,2.57h6.2v-.36c.03-.84-.25-1.66-.8-2.3-.29-.28-.63-.5-1.01-.64-.38-.14-.78-.2-1.18-.17Z"/>
      <path class="cls-1" d="M427.26,82.2l3.08-10.39h4.79l-6.71,19.29-.37.88c-.38.99-1.06,1.84-1.95,2.43-.89.59-1.93.88-2.99.84-.67,0-1.33-.1-1.98-.29v-3.38l.68.02c.65.04,1.31-.09,1.89-.39.46-.31.8-.76.98-1.28l.52-1.37-5.85-16.74h4.8l3.1,10.39Z"/>
    </g>
  </g>
</svg>