<?xml version="1.0" encoding="utf-8"?>
<!-- Generator: Adobe Illustrator 22.1.0, SVG Export Plug-In . SVG Version: 6.00 Build 0)  -->
<svg version="1.1" id="Layer_1" xmlns="http://www.w3.org/2000/svg" xmlns:xlink="http://www.w3.org/1999/xlink" x="0px" y="0px"
	 viewBox="0 0 315 71.2" style="enable-background:new 0 0 315 71.2;" xml:space="preserve">
<g id="infowars" fill="white">
	<path d="M7,7.7h10.9v55.5H7V7.7z"/>
	<path d="M123.5,6.8c-14,0-25.7,10.1-28.3,23.3H78.8V17.7H98v-10H68.2v55.4h10.5V39.8c0,0,11.8-0.1,16.1,0
		C97,53.7,109,64.4,123.4,64.4c16,0,28.8-12.9,28.8-28.8S139.4,6.8,123.5,6.8z M123.5,53.9c-10.2,0-18.3-8.3-18.3-18.3
		c0-10.2,8.2-18.3,18.3-18.3s18.3,8.3,18.3,18.3C141.9,45.6,133.6,53.9,123.5,53.9z M65,63.2H54.8L31.7,26.9v36.4H21.1V7.7h10.3
		L54,42.6V7.7h11"/>
	<path d="M302.4,35.7c-2.4-2.1-3.6-2.5-10.4-4.4c-8.2-2.3-10.7-4.6-10.7-9.6c0-5.4,4.1-9.3,9.3-9.3c5.4,0,9.4,4,9.8,9.9v0.2h6.3
		v-0.2c0-8.6-6.8-15.3-15.6-15.3c-7.2,0-12.9,3.4-15.1,9.3c-1.9-3.2-4.8-5.7-8.5-7.2c-2.6-1.1-6.9-1.6-12.8-1.6h-14.4v55.8h6.1V13
		h9.5c5.1,0,8.1,0.5,10.7,2c3.5,2.1,5.9,6.2,5.9,10.3c0,5.4-3,9.6-8.1,11.4c-2.6,1-4.4,1.2-12.7,1.2h-0.5l19,25.2l0.1,0.1h7.5
		l-15.4-20.5c7.9-0.6,13.8-5.4,15.6-12.2c0.4,0.5,0.7,0.9,1.1,1.3c2.3,2.3,4.6,3.4,10.5,4.9c8.4,2.1,12.2,5.6,12.2,11.4
		c0,5.9-5,10.2-10.8,10.2c-6.4,0-10.5-4.2-11.3-11.3v-0.2h-6.4V47c0.5,10.1,7.4,16.8,17.5,16.8c9.4,0,17.1-6.7,17.1-15.9
		C308,43.3,305.9,38.7,302.4,35.7z M230.8,7.7l-31.7,55.5h7l8.1-14.2h16.7v14.2h6V7.7H230.8L230.8,7.7z M217.6,43.1l13.2-23.2v23.2
		H217.6z M220.9,7.7h-1.3l-25.8,45.2V7.7h-5.3l-26.9,47l0.1-47H156v55.5h7.9l23.9-41.8v41.8h7.2l31.6-55.5"/>
</g>
</svg>
