<?xml version="1.0" encoding="UTF-8"?>
<svg id="Capa_2" data-name="Capa 2" xmlns="http://www.w3.org/2000/svg" viewBox="0 0 600 104.4">
  <defs>
    <style>
      .cls-1 {
        fill: #fff;
      }
    </style>
  </defs>
  <g id="layer">
    <g id="svg-colour-1">
      <rect width="600" height="104.4"/>
    </g>
    <g id="svg-colour-2">
      <g>
        <g>
          <path class="cls-1" d="M223.9,15h35.5c13.1-.2,27.5,3.2,27.5,19.1,0,6.8-4.1,12.4-10,15.2,8,2.4,13.1,9.4,13.1,17.9,0,18.1-13.2,23.5-29.6,23.5h-36.5V15ZM243.7,44.8h15.2c3.3,0,8-1.9,8-7.3s-4-7.3-8-7.3h-15.2v14.6ZM243.7,75h15.8c6.3,0,10.6-2.2,10.6-8.4,0-6.7-4.7-8.9-10.6-8.9h-15.8v17.3Z"/>
          <path class="cls-1" d="M295.3,15h19.7v58.8h35.4v17h-55.2l.1-75.8h0Z"/>
          <path class="cls-1" d="M389.4,13.4c23.9,0,37.4,17.6,37.4,39.6s-13.5,39.6-37.4,39.6-37.4-17.6-37.4-39.6,13.4-39.6,37.4-39.6ZM389.4,75.3c12.7,0,17.7-11.3,17.7-22.5s-4.8-22.5-17.7-22.5-17.7,11.3-17.7,22.5c.1,11.3,4.9,22.5,17.7,22.5Z"/>
          <path class="cls-1" d="M482.5,42.1c-1.1-7.7-7.1-11.6-15.2-11.6-12.7,0-17.7,11.3-17.7,22.5s4.8,22.5,17.7,22.5c9.3,0,14.6-5.3,15.2-14h19.8c-1.1,19.5-15.5,31.1-34.6,31.1-22.9,0-37.9-17.6-37.9-39.6s14.8-39.6,37.9-39.6c16.3,0,34,10.4,34.6,28.7h-19.8Z"/>
          <path class="cls-1" d="M507.5,15h19.8v29.1l25-29.1h24.5l-28.1,29.8,31.5,45.9h-24.5l-20.4-31.8-8,8.4v23.4h-19.8V15h0Z"/>
        </g>
        <path class="cls-1" d="M6.3,6.8v91.3h198.1V6.8H6.3ZM73.1,24.9h-23.9v63.6h-9.5V24.9H15.7v-8h57.3l.1,8h0ZM136.2,88.4h-9.5v-32.8h-37.6v32.8h-9.5V16.8h9.5v30.8h37.7v-30.8h9.5l-.1,71.6h0ZM192.7,88.4h-49.7V16.8h49.4v8h-40v22.8h37.2v8h-37.2v24.7h40.2l.1,8.1h0Z"/>
      </g>
    </g>
  </g>
</svg>